<svg xmlns:xlink="http://www.w3.org/1999/xlink" xmlns="http://www.w3.org/2000/svg" viewBox="0 0 195 50" width="195"  height="50" ><g id="Pages" stroke="none" stroke-width="1" fill="#4F5348" fill-rule="evenodd"><path d="M155.203571,34.9862245 C155.203571,40.9357143 153.135714,42.4938776 147.398469,42.4938776 C141.732143,42.4938776 139.740816,40.9357143 139.740816,34.9862245 L139.740816,14.927551 L131.816327,14.927551 L131.816327,35.1137755 C131.816327,44.180102 138.04898,49.6336735 147.398469,49.6336735 C156.677041,49.6336735 163.122959,44.180102 163.122959,35.1137755 L163.122959,14.927551 L155.203571,14.927551 L155.203571,34.9862245 Z M190.22449,31.9755102 L190.217347,31.9719388 L172.003061,23.6862245 L172.003061,22.697449 L193.768878,22.697449 L193.768878,14.8178571 L174.047449,14.852551 C169.626531,14.8836735 166.05102,18.8270408 166.05102,23.6872449 C166.05102,27.2005102 167.919898,30.2346939 170.62602,31.6581633 L188.846939,39.9479592 L188.846939,40.9408163 L166.752551,40.9408163 L166.752551,48.8163265 L186.802551,48.7816327 C191.22398,48.75 194.79898,44.8066327 194.79898,39.9469388 C194.79898,36.4336735 192.930102,33.3989796 190.22449,31.9755102 L190.22449,31.9755102 Z M87.9683673,0 C84.9387755,0 82.4826531,2.45561224 82.4826531,5.48571429 C82.4826531,8.51530612 84.9387755,10.9714286 87.9683673,10.9714286 C90.9984694,10.9714286 93.4545918,8.51530612 93.4545918,5.48571429 C93.4545918,2.45561224 90.9984694,0 87.9683673,0 L87.9683673,0 Z M112.188265,21.3204082 C117.115816,21.3204082 119.204592,22.3147959 120.637245,27.4964286 L128.904082,27.4964286 C126.779082,18.3596939 120.47551,14.1096939 112.259184,14.1096939 C101.705612,14.1096939 94.5520408,21.1923469 94.5520408,31.8168367 C94.5520408,42.4413265 101.705612,49.5239796 112.259184,49.5239796 C120.184184,49.5239796 126.575,45.5571429 128.831633,36.402551 L120.564796,36.402551 C119.111224,41.3795918 117.032143,42.3132653 112.188265,42.3132653 C104.892857,42.3132653 102.541837,39.7494898 102.541837,31.8168367 C102.541837,23.8841837 104.892857,21.3204082 112.188265,21.3204082 L112.188265,21.3204082 Z M27.7622449,31.8168367 C27.7622449,24.2102041 24.7744898,21.1535714 17.575,21.1535714 C10.3755102,21.1535714 7.45510204,24.2102041 7.45510204,31.8168367 C7.45510204,39.4239796 10.3755102,42.480102 17.575,42.480102 C24.7744898,42.480102 27.7622449,39.4239796 27.7622449,31.8168367 L27.7622449,31.8168367 Z M28.1193878,14.8178571 L36.0530612,14.8178571 L36.0530612,48.8158163 L28.1193878,48.8158163 L28.1193878,41.8035714 C25.7826531,46.6913265 21.5321429,49.5239796 15.8658163,49.5239796 C6.09183673,49.5239796 0,42.4413265 0,31.8168367 C0,21.1923469 6.02040816,14.1096939 15.5831633,14.1096939 C21.3908163,14.1096939 25.7826531,16.9428571 28.1193878,21.9719388 L28.1193878,14.8178571 Z M84.0061224,48.8158163 L91.9306122,48.8158163 L91.9306122,14.8178571 L84.0061224,14.8178571 L84.0061224,48.8158163 Z M70.2244898,14.8178571 L79.8658163,14.8178571 L79.8658163,22.0260204 L70.2244898,22.0260204 L70.2244898,41.6005102 L78.8035714,41.6005102 L78.8035714,48.8158163 L71.7204082,48.8158163 C66.0540816,48.8158163 62.3005102,45.0617347 62.3005102,39.3954082 L62.3005102,22.0260204 L48.130102,22.0260204 L48.130102,41.6005102 L56.7795918,41.6005102 L56.7795918,48.8158163 L49.6969388,48.8158163 C44.0306122,48.8158163 40.2056122,45.0617347 40.2056122,39.3954082 L40.2056122,4.40561224 L48.130102,4.40561224 L48.130102,14.8178571 L62.3005102,14.8178571 L62.3005102,4.40561224 L70.2244898,4.40561224 L70.2244898,14.8178571 Z" id="Fill-1" fill="#4F5348"></path></g></svg>