<svg xmlns="http://www.w3.org/2000/svg" xmlns:xlink="http://www.w3.org/1999/xlink" version="1.1" id="Layer_1" x="0px" y="0px" viewBox="0 0 94.2 85.4" enable-background="new 0 0 94.2 85.4" xml:space="preserve" width="94.2"  height="85.4" >
<g>
	<g>
		<path id="H-top_1_" fill="#9AA5AE" d="M45.1,0.1h37.3v41.8c0,0-22.3-0.9-37.3-14.4V0.1z"/>
		<path id="H-bottom_1_" fill="#9AA5AE" d="M45.1,85.3h37.3V42.9c0,0-23,1-37.3,14.4V85.3z"/>
		<path id="H-left_1_" fill="#9AA5AE" d="M0,0.1v85.3h24.1c9.5-20.6,20.4-28.2,20.4-28.2V27.6c0,0-14.6-12.6-19.8-27.5H0z"/>
	</g>
	<g>
		<path fill="#9AA5AE" d="M89.7,8.7c-1.3,0-2.3-0.4-3.2-1.2c-0.8-0.8-1.2-1.8-1.2-3.1c0-1.2,0.4-2.2,1.3-3.1S88.5,0,89.8,0    c1.3,0,2.3,0.4,3.1,1.2C93.7,2,94.2,3,94.2,4.3c0,1.2-0.4,2.3-1.3,3.1S90.9,8.7,89.7,8.7z M89.7,0.6c-1.1,0-2,0.4-2.7,1.1    s-1.1,1.6-1.1,2.7s0.4,2,1.1,2.7s1.6,1.1,2.7,1.1s2-0.4,2.7-1.1s1.1-1.6,1.1-2.7s-0.4-2-1.1-2.7S90.8,0.6,89.7,0.6z M90.7,7.1    l-0.5-1.3c-0.2-0.6-0.5-0.9-0.8-0.9H89v2.2h-1V1.6h1.7c0.7,0,1.2,0.1,1.6,0.4s0.5,0.6,0.5,1.1c0,0.4-0.1,0.7-0.3,0.9    c-0.2,0.3-0.6,0.4-1,0.5l0,0c0.3,0,0.6,0.4,0.9,1L92.1,7L90.7,7.1L90.7,7.1z M88.9,2.5v1.6h0.7c0.3,0,0.6-0.1,0.7-0.2    s0.3-0.3,0.3-0.6c0-0.3-0.1-0.5-0.3-0.6c-0.2-0.1-0.5-0.2-0.9-0.2L88.9,2.5L88.9,2.5z"/>
	</g>
</g>
</svg>