<svg width="220" height="30" viewBox="0 0 220 30" version="1.1" xmlns="http://www.w3.org/2000/svg" xmlns:xlink="http://www.w3.org/1999/xlink">
    <title>Otherland Logo</title>
    <defs></defs>
    <g id="Symbols" stroke="none" stroke-width="1" fill="none" fill-rule="evenodd">
        <g id="Navigation" transform="translate(-610.000000, -30.000000)" fill="#484646">
            <g transform="translate(47.000000, 30.000000)" id="Logo" fill="#484646">
                <path d="M765.825016,23.6363636 C764.520463,16.3748056 764.175258,8.18024734 764.175258,7.30573712 C764.175258,6.67299491 764.348999,6.13636364 765.016501,6.13636364 C770.957565,6.13636364 776.876289,9.99911502 776.876289,15.5045543 C776.876289,19.4462388 771.766222,22.3213331 765.825016,23.6363636 M721.09639,20.1678204 C721.638972,22.0128987 721.69294,23.1818182 721.182565,23.1818182 C719.719335,23.1818182 716.578454,19.325676 716.204159,18.2387663 C715.981469,17.5922375 716.011354,17.1188561 717.066197,16.8882739 C717.806662,16.7263609 718.790708,16.5459114 719.89299,16.3636364 C720.304859,17.5821267 720.709765,18.8525753 721.09639,20.1678204 M764.788619,0.889957057 C760.074299,0.889957057 758.693678,3.02736554 758.693678,7.47387105 C758.693678,12.0063635 759.608161,20.0266718 760.359959,24.3839107 C759.820094,24.41186 759.283787,24.4261199 758.754596,24.4261199 C755.215796,24.4261199 754.153145,22.9158595 754.153145,16.9693606 C754.153145,9.88948915 752.670899,4.32273005 746.752877,4.32273005 C741.707349,4.32273005 738.807619,9.56921299 736.492447,15.3759653 C736.461134,15.4542519 736.347126,15.4338603 736.344137,15.3495846 C736.216607,11.8228392 734.911423,9.88620939 731.733861,9.88620939 C729.847108,9.88620939 726.75466,10.261386 723.680431,10.7279682 C722.903868,8.68253569 722.12887,6.87738165 721.511291,5.49032632 C719.567463,1.12424634 717.37555,0 714.760484,0 C712.285188,0 710.137825,0.952985581 707.69797,5.51670704 C705.818333,9.03232974 703.43598,14.7106009 701.015055,18.890875 C698.922774,22.5031795 697.289942,24.2370343 692.696034,24.2370343 C689.52445,24.2370343 688.361312,22.6199676 688.361312,18.8687723 C688.361312,13.4417597 689.971372,6.14727748 690.386982,4.35239053 C690.43879,4.12865353 690.293185,3.9070555 690.067589,3.86641494 L685.388566,3.02380057 C685.178626,2.98601198 684.97623,3.11791557 684.927837,3.32625193 C684.507246,5.1383933 682.752577,13.0171014 682.752577,19.1813481 C682.752577,24.689927 685.479659,29.6386644 692.69091,29.5441216 C698.299645,29.5441216 702.542135,27.4002962 706.122924,20.9599788 C708.83563,16.0812574 711.787595,9.19089924 713.650437,5.9964083 C714.389852,4.7282801 715.205841,4.66411078 715.870531,6.01309232 C716.583188,7.45961121 717.417965,9.38012741 718.279074,11.6331833 C717.003921,11.8660466 715.915935,12.0783757 715.167696,12.2358044 C712.366033,12.8255917 710.852474,14.6094985 710.852474,17.1514589 C710.852474,18.4894603 711.302813,20.5126474 713.723738,23.6180143 C715.879356,26.3834265 719.173203,28.6018309 721.967323,28.6018309 C725.909066,28.6018309 727.598262,24.7270026 726.328233,19.33621 C726.005567,17.9664091 725.706527,16.7875476 725.302162,15.4545371 C727.463047,15.1740459 729.389368,14.9781156 730.298015,14.9781156 C731.065043,14.9781156 731.363371,14.9505941 731.363371,16.2014679 C731.363371,19.3059792 731.266158,22.3987974 731.084542,27.308035 C731.077283,27.5071024 731.216626,27.6839245 731.412333,27.7200019 L736.211768,28.6051107 C736.405197,28.6407603 736.595353,28.5312446 736.661395,28.345724 C737.07857,27.1725664 738.604796,22.9697617 740.486283,18.6989375 C743.525641,11.7998809 745.039057,9.65919262 746.508066,9.65919262 C747.823498,9.65919262 748.693004,12.9850168 748.693004,18.4666446 C748.693004,25.927254 751.526265,29.4675462 759.348975,29.4675462 C768.468187,29.4675462 783,25.2509094 783,15.0941907 C783,6.53158036 773.079174,0.889957057 764.788619,0.889957057 M669.330625,6.81818182 C671.961711,6.81818182 673.680412,7.73665135 673.680412,10.1448441 C673.680412,12.5674864 670.838479,14.6430558 665.196123,15 C665.191971,12.3506017 665.150747,9.63954283 665.061856,7.08442353 C666.49499,6.92004324 667.911662,6.81818182 669.330625,6.81818182 M612.329666,24.0909091 C611.543582,24.0909091 610.85567,23.3279624 610.85567,22.026634 C610.85567,20.1909415 612.379801,17.8973662 615.391753,17.0454545 C615.080475,22.8504212 613.610668,24.0909091 612.329666,24.0909091 M679.371468,24.6454023 C677.355744,23.3394833 674.157278,20.9148553 673.14102,18.1866509 C677.343791,16.3016037 679.501809,13.1496158 679.501809,9.71169133 C679.501809,4.61377019 675.141235,1.65411371 668.820431,1.65411371 C667.411871,1.65411371 666.040592,1.74658075 664.684965,1.89666186 C664.645265,1.36504753 664.602435,0.851215315 664.556047,0.360286476 C664.53513,0.139503643 664.337627,-0.0202509458 664.116931,0.00208340013 L659.334884,0.485188105 C659.115468,0.507237937 658.955958,0.701134201 658.97659,0.920636722 C659.031373,1.50161423 659.080607,2.11929404 659.125713,2.7605885 C654.866452,3.54229061 650.477847,4.45145497 645.299087,4.45145497 C643.675807,4.45145497 642.13961,4.39426766 641.083226,4.34248612 C640.259633,4.30208514 639.5291,4.86528053 639.36034,5.67230438 C638.998773,7.40115346 638.402565,10.5121714 638.025915,13.8318802 C636.651363,13.7166521 635.276384,13.5556172 633.899556,13.3698296 C633.832251,8.49638995 632.848863,3.99082687 632.529842,2.65105063 C632.477905,2.43297068 632.25735,2.30209426 632.040353,2.35828576 L627.385659,3.56306013 C627.17535,3.61754455 627.04629,3.82794263 627.095666,4.03947876 C627.35962,5.17298237 628.115054,8.70308934 628.268446,12.552421 C625.844767,12.2001927 623.409135,11.8846667 620.953724,11.7367194 C620.50237,3.68412082 618.018359,0.210632133 612.545337,0.210632133 C607.249612,0.210632133 603.82362,1.88656162 597.555464,1.88656162 C593.910056,1.88656162 590.51366,0.891474041 589.376738,0.622181577 C589.156041,0.569831008 588.937906,0.711234447 588.893511,0.933582107 L587.956368,5.2234836 C587.912542,5.44298612 588.055119,5.65551805 588.275531,5.69549226 C589.357244,5.89166464 592.478729,6.60807079 596.062667,6.79243584 C595.770254,10.6447549 595.042709,18.968353 593.693486,27.3104446 C593.658339,27.52824 593.80547,27.7335169 594.023321,27.7692234 L598.765952,28.5472268 C598.984799,28.5830756 599.191693,28.4342748 599.227124,28.2154835 C600.696301,19.1382079 601.432811,10.3033381 601.697903,6.65074789 C605.46241,6.27888814 607.425345,5.47627426 611.187291,5.47627426 C614.264381,5.47627426 615.202377,6.79200907 615.400449,11.8904992 C609.913483,12.8727837 605.588482,16.7807252 605.588482,22.4077 C605.588482,26.6564893 608.803881,29.4204001 612.634982,29.4204001 C617.649392,29.4204001 620.582908,25.0218143 620.98261,16.6918146 C623.744235,16.8357786 625.99574,17.1659571 628.133979,17.530135 C627.744238,22.0174891 626.759854,25.5649515 626.414793,26.7114005 C626.349908,26.9273466 626.475695,27.1531084 626.693403,27.2122873 L631.33714,28.4755293 C631.542469,28.531294 631.755767,28.4176307 631.82236,28.2154835 C632.185777,27.1138455 633.266778,23.6358046 633.710163,18.4501109 C634.940288,18.6169783 636.243693,18.752976 637.682704,18.8342047 C637.680854,18.9805871 637.679716,19.1265428 637.679716,19.2712181 C637.679716,24.8101359 640.55418,28.8143854 646.885514,28.8143854 C650.464329,28.8143854 654.275082,27.3753138 655.414281,26.909849 C655.605096,26.8318921 655.703848,26.6220631 655.644796,26.4247527 L654.367715,22.1581813 C654.298276,21.927156 654.042575,21.8085136 653.822305,21.9069555 C652.778443,22.3734161 649.634191,23.528116 646.712912,23.528116 C644.351842,23.528116 643.351379,22.2152264 643.28692,19.8803625 C643.277955,19.5594308 643.279094,19.2198634 643.287062,18.8689154 C647.82351,18.6996296 650.249609,18.122493 651.099668,17.8328578 C651.30087,17.76429 651.411575,17.5486284 651.353092,17.3443473 L650.397878,13.4789407 C650.336407,13.2645594 650.113861,13.1412226 649.900137,13.2052382 C649.154236,13.428724 647.25633,13.872708 643.712946,13.9859446 C644.024852,11.6186461 644.391115,9.69646983 644.391115,9.69646983 C650.083552,9.69646983 654.913267,8.79868603 659.381699,8.02110938 C659.610933,15.3106416 659.453984,23.8208809 659.160575,28.0561557 C659.14535,28.275516 659.31041,28.464291 659.529826,28.480935 L664.322117,28.8451129 C664.54381,28.8620415 664.73676,28.6965966 664.752127,28.474818 C664.894563,26.4209117 665.00669,23.3831562 665.060476,19.9533404 C666.030062,19.9031237 666.952975,19.8116524 667.827082,19.6806337 C669.746332,24.6731425 673.111423,28.12828 677.220423,29.972215 C677.414084,30.0589917 677.639192,29.9322408 677.715745,29.7343613 L679.551185,25.1404566 C679.623612,24.9536732 679.539659,24.7543712 679.371468,24.6454023 M576.090542,24.3181818 C571.447456,24.3181818 568.896907,20.768853 568.896907,16.9539408 C568.896907,12.653598 572.187762,8.63636364 576.965397,8.63636364 C581.743032,8.63636364 583.865979,12.1681673 583.865979,16.1215705 C583.865979,20.0752586 581.272111,24.3181818 576.090542,24.3181818 M577.093762,3.63636364 C568.883435,3.63636364 563,9.61220344 563,17.5368758 C563,23.673716 567.338763,29.5454545 575.692734,29.5454545 C584.154793,29.5454545 589.762887,23.6434839 589.762887,15.5121777 C589.762887,8.40890702 584.487308,3.63636364 577.093762,3.63636364" fill="#484646"></path>
            </g>
        </g>
    </g>
</svg>