<svg xmlns="http://www.w3.org/2000/svg" viewBox="0 0 989 166" preserveAspectRatio="xMidYMid meet" style="width: 100%; height: 100%; transform: translate3d(0px, 0px, 0px);"><defs><clipPath id="__lottie_element_2"><rect width="989" height="166" x="0" y="0"/></clipPath><mask id="__lottie_element_3" mask-type="alpha"><g transform="matrix(1,0,0,1,883.5239868164062,36.84199905395508)" opacity="1" style="display: block;"><g opacity="1" transform="matrix(1,0,0,1,0,0)"><path stroke-linecap="butt" stroke-linejoin="miter" fill-opacity="0" stroke-miterlimit="10" stroke="rgb(255,0,0)" stroke-opacity="1" stroke-width="18" d=" M22.55299949645996,32.012001037597656 C22.55299949645996,32.012001037597656 -9.409000396728516,-13.354999542236328 -19.523000717163086,-27.711000442504883"/></g></g></mask><mask id="__lottie_element_9" mask-type="alpha"><g transform="matrix(1,0,0,1,952.2880249023438,83.32499694824219)" opacity="1" style="display: block;"><g opacity="1" transform="matrix(1,0,0,1,0,0)"><path stroke-linecap="butt" stroke-linejoin="miter" fill-opacity="0" stroke-miterlimit="10" stroke="rgb(255,0,0)" stroke-opacity="1" stroke-width="18" d=" M-30.42300033569336,78.72899627685547 C-30.42300033569336,78.72899627685547 -30.51799964904785,7.671000003814697 -30.51799964904785,7.671000003814697 C-30.51799964904785,7.671000003814697 30.51799964904785,-78.72899627685547 30.51799964904785,-78.72899627685547"/></g></g></mask><mask id="__lottie_element_15" mask-type="alpha"><g transform="matrix(1,0,0,1,741.739013671875,41.257999420166016)" opacity="1" style="display: block;"><g opacity="1" transform="matrix(1,0,0,1,0,0)"><path stroke-linecap="butt" stroke-linejoin="miter" fill-opacity="0" stroke-miterlimit="10" stroke="rgb(255,0,0)" stroke-opacity="1" stroke-width="18" d=" M-67.73799896240234,34.00299835205078 C-64.05999755859375,-4.195000171661377 -33.47800064086914,-34.00299835205078 3.7039999961853027,-34.00299835205078 C32.77399826049805,-34.00299835205078 55.73500061035156,-15.782999992370605 65.9260025024414,10.420999526977539"/></g></g></mask><mask id="__lottie_element_21" mask-type="alpha"><g transform="matrix(1,0,0,1,742.7210083007812,124.86299896240234)" opacity="1" style="display: block;"><g opacity="1" transform="matrix(1,0,0,1,0,0)"><path stroke-linecap="butt" stroke-linejoin="miter" fill-opacity="0" stroke-miterlimit="10" stroke="rgb(255,0,0)" stroke-opacity="1" stroke-width="18" d=" M67.697998046875,-15.520000457763672 C58.590999603271484,13.331999778747559 34.60300064086914,33.893001556396484 3.7219998836517334,33.893001556396484 C-33.388999938964844,33.893001556396484 -63.92399978637695,4.198999881744385 -67.697998046875,-33.893001556396484"/></g></g></mask><mask id="__lottie_element_27" mask-type="alpha"><g transform="matrix(1,0,0,1,592.6430053710938,122.24500274658203)" opacity="1" style="display: block;"><g opacity="1" transform="matrix(1,0,0,1,0,0)"><path stroke-linecap="butt" stroke-linejoin="miter" fill-opacity="0" stroke-miterlimit="10" stroke="rgb(255,0,0)" stroke-opacity="1" stroke-width="18" d=" M-28.964000701904297,-38.303001403808594 C-28.964000701904297,-38.303001403808594 17.07200050354004,22.576000213623047 27.065000534057617,35.79100036621094"/></g></g></mask><mask id="__lottie_element_33" mask-type="alpha"><g transform="matrix(1,0,0,1,587.5369873046875,46.61899948120117)" opacity="1" style="display: block;"><g opacity="1" transform="matrix(1,0,0,1,0,0)"><path stroke-linecap="butt" stroke-linejoin="miter" fill-opacity="0" stroke-miterlimit="10" stroke="rgb(255,0,0)" stroke-opacity="1" stroke-width="18" d=" M-27.5049991607666,-34.917999267578125 C-27.5049991607666,-34.917999267578125 -20.589000701904297,-34.917999267578125 -8.541999816894531,-34.917999267578125 C3.505000114440918,-34.917999267578125 27.5049991607666,-31.152999877929688 27.5049991607666,3.8589999675750732 C27.5049991607666,24.0939998626709 5.857999801635742,34.917999267578125 5.857999801635742,34.917999267578125"/></g></g></mask><mask id="__lottie_element_39" mask-type="alpha"><g transform="matrix(1,0,0,1,533.4429931640625,82.66600036621094)" opacity="1" style="display: block;"><g opacity="1" transform="matrix(1,0,0,1,0,0)"><path stroke-linecap="butt" stroke-linejoin="miter" fill-opacity="0" stroke-miterlimit="10" stroke="rgb(255,0,0)" stroke-opacity="1" stroke-width="18" d=" M0,80 C0,80 0,-80 0,-80"/></g></g></mask><mask id="__lottie_element_45" mask-type="alpha"><g transform="matrix(1,0,0,1,443.5559997558594,80.58300018310547)" opacity="1" style="display: block;"><g opacity="1" transform="matrix(1,0,0,1,0,0)"><path stroke-linecap="butt" stroke-linejoin="miter" fill-opacity="0" stroke-miterlimit="10" stroke="rgb(255,0,0)" stroke-opacity="1" stroke-width="18" d=" M-23.062999725341797,77.91699981689453 C8.604000091552734,74.5719985961914 23.062999725341797,49.058998107910156 23.062999725341797,18.082000732421875 C23.062999725341797,18.082000732421875 23.062999725341797,-76.46499633789062 23.062999725341797,-77.9000015258789"/></g></g></mask><mask id="__lottie_element_51" mask-type="alpha"><g transform="matrix(1,0,0,1,382.5249938964844,80.552001953125)" opacity="1" style="display: block;"><g opacity="1" transform="matrix(1,0,0,1,0,0)"><path stroke-linecap="butt" stroke-linejoin="miter" fill-opacity="0" stroke-miterlimit="10" stroke="rgb(255,0,0)" stroke-opacity="1" stroke-width="18" d=" M-22.729000091552734,-77.88500213623047 C-22.729000091552734,-77.88500213623047 -22.729000091552734,18.11400032043457 -22.729000091552734,18.11400032043457 C-22.729000091552734,54.24700164794922 -5.425000190734863,74.71099853515625 22.729000091552734,77.88500213623047"/></g></g></mask><mask id="__lottie_element_57" mask-type="alpha"><g transform="matrix(1,0,0,1,226.83399963378906,41.474998474121094)" opacity="1" style="display: block;"><g opacity="1" transform="matrix(1,0,0,1,0,0)"><path stroke-linecap="butt" stroke-linejoin="miter" fill-opacity="0" stroke-miterlimit="10" stroke="rgb(255,0,0)" stroke-opacity="1" stroke-width="18" d=" M71.43800354003906,33.630001068115234 C67.64199829101562,-4.436999797821045 37.117000579833984,-34.10300064086914 0.023000000044703484,-34.10300064086914 C-37.2239990234375,-34.10300064086914 -67.8479995727539,-4.190000057220459 -71.43800354003906,34.10300064086914"/></g></g></mask><mask id="__lottie_element_63" mask-type="alpha"><g transform="matrix(1,0,0,1,226.8730010986328,125.7030029296875)" opacity="1" style="display: block;"><g opacity="1" transform="matrix(1,0,0,1,0,0)"><path stroke-linecap="butt" stroke-linejoin="miter" fill-opacity="0" stroke-miterlimit="10" stroke="rgb(255,0,0)" stroke-opacity="1" stroke-width="18" d=" M-71.45800018310547,-33.834999084472656 C-67.77999877929688,4.36299991607666 -37.198001861572266,34.16999816894531 -0.01600000075995922,34.16999816894531 C37.275001525878906,34.16999816894531 67.927001953125,4.188000202178955 71.45800018310547,-34.16999816894531"/></g></g></mask><mask id="__lottie_element_69" mask-type="alpha"><g transform="matrix(1,0,0,1,56.80699920654297,43.45899963378906)" opacity="1" style="display: block;"><g opacity="1" transform="matrix(1,0,0,1,0,0)"><path stroke-linecap="butt" stroke-linejoin="miter" fill-opacity="0" stroke-miterlimit="10" stroke="rgb(255,0,0)" stroke-opacity="1" stroke-width="18" d=" M-8.98900032043457,36.0880012512207 C-28.384000778198242,32.183998107910156 -43.69300079345703,21.94099998474121 -43.69300079345703,0.04100000113248825 C-43.69300079345703,-25.82200050354004 -20.868999481201172,-36.0880012512207 -0.9670000076293945,-36.0880012512207 C22.19300079345703,-36.0880012512207 35.63600158691406,-21.299999237060547 43.69300079345703,-2.48799991607666"/></g></g></mask><mask id="__lottie_element_75" mask-type="alpha"><g transform="matrix(1,0,0,1,54,120.38899993896484)" opacity="1" style="display: block;"><g opacity="1" transform="matrix(1,0,0,1,0,0)"><path stroke-linecap="butt" stroke-linejoin="miter" fill-opacity="0" stroke-miterlimit="10" stroke="rgb(255,0,0)" stroke-opacity="1" stroke-width="18" d=" M-46.5,4.111000061035156 C-32.874000549316406,38.137001037597656 -5.820000171661377,38.32400131225586 1.840000033378601,38.32400131225586 C9.5,38.32400131225586 46.5,32.111000061035156 46.5,-0.8889999985694885 C46.5,-23.809999465942383 30.990999221801758,-33.762001037597656 8.788000106811523,-38.32400131225586"/></g></g></mask></defs><g clip-path="url(#__lottie_element_2)" fill="currentColor"><g mask="url(#__lottie_element_75)" style="display: block;" fill="currentColor"><g transform="matrix(1,0,0,1,54.731998443603516,120.66799926757812)" opacity="1" fill="currentColor"><g opacity="1" transform="matrix(1,0,0,1,0,0)" fill="currentColor"><path fill="currentColor" fill-opacity="1" d=" M53.731998443603516,-1.8830000162124634 C53.731998443603516,-22.711000442504883 41.323001861572266,-38.88600158691406 18.058000564575195,-43.76100158691406 C18.058000564575195,-43.76100158691406 12.076000213623047,-45.09000015258789 12.076000213623047,-45.09000015258789 C12.076000213623047,-45.09000015258789 8.086999893188477,-30.2450008392334 8.086999893188477,-30.2450008392334 C8.086999893188477,-30.2450008392334 12.29699993133545,-29.358999252319336 12.29699993133545,-29.358999252319336 C29.136999130249023,-26.03499984741211 37.55699920654297,-15.621000289916992 37.55699920654297,-1.218999981880188 C37.55699920654297,19.166000366210938 20.05299949645996,30.465999603271484 0.7760000228881836,30.465999603271484 C-16.506999969482422,30.465999603271484 -33.34700012207031,21.381999969482422 -39.55099868774414,1.440000057220459 C-39.55099868774414,1.440000057220459 -53.731998443603516,7.201000213623047 -53.731998443603516,7.201000213623047 C-45.3120002746582,33.34700012207031 -21.604000091552734,45.09000015258789 1.440000057220459,45.09000015258789 C32.90399932861328,45.09000015258789 53.731998443603516,24.041000366210938 53.731998443603516,-1.8830000162124634z"/></g></g></g><g mask="url(#__lottie_element_69)" style="display: block;" fill="currentColor"><g transform="matrix(1,0,0,1,55.84000015258789,43.3380012512207)" opacity="1" fill="currentColor"><g opacity="1" transform="matrix(1,0,0,1,0,0)" fill="currentColor"><path fill="currentColor" fill-opacity="1" d=" M50.85100173950195,-5.872000217437744 C43.76100158691406,-31.131000518798828 20.93899917602539,-43.09600067138672 -1.440000057220459,-43.09600067138672 C-26.256000518798828,-43.09600067138672 -50.85100173950195,-28.250999450683594 -50.85100173950195,0.996999979019165 C-50.85100173950195,18.722999572753906 -38.887001037597656,36.66999816894531 -15.843000411987305,41.987998962402344 C-15.843000411987305,41.987998962402344 -11.189000129699707,43.09600067138672 -11.189000129699707,43.09600067138672 C-11.189000129699707,43.09600067138672 -7.201000213623047,28.250999450683594 -7.201000213623047,28.250999450683594 C-7.201000213623047,28.250999450683594 -12.29699993133545,26.92099952697754 -12.29699993133545,26.92099952697754 C-27.36400032043457,23.597000122070312 -34.45500183105469,12.076000213623047 -34.45500183105469,0.5540000200271606 C-34.45500183105469,-18.280000686645508 -18.500999450683594,-28.472000122070312 -1.440000057220459,-28.472000122070312 C14.956000328063965,-28.472000122070312 31.35300064086914,-19.386999130249023 37.11399841308594,-0.3319999873638153 C37.11399841308594,-0.3319999873638153 50.85100173950195,-5.872000217437744 50.85100173950195,-5.872000217437744z"/></g></g></g><g mask="url(#__lottie_element_63)" style="display: block;" fill="currentColor"><g transform="matrix(1,0,0,1,226.89500427246094,128.9770050048828)" opacity="1" fill="currentColor"><g opacity="1" transform="matrix(1,0,0,1,0,0)" fill="currentColor"><path fill="currentColor" fill-opacity="1" d=" M63.03799819946289,-37.00299835205078 C59.04999923706055,-0.8859999775886536 31.131000518798828,22.156999588012695 0.11100000143051147,22.156999588012695 C-30.909000396728516,22.156999588012695 -59.04999923706055,-0.8859999775886536 -63.03799819946289,-37.00299835205078 C-63.03799819946289,-37.00299835205078 -79.65599822998047,-37.00299835205078 -79.65599822998047,-37.00299835205078 C-75.44599914550781,8.640999794006348 -39.108001708984375,37.00299835205078 0.3319999873638153,37.00299835205078 C39.77199935913086,37.00299835205078 75.66799926757812,8.640999794006348 79.65599822998047,-37.00299835205078 C79.65599822998047,-37.00299835205078 63.03799819946289,-37.00299835205078 63.03799819946289,-37.00299835205078z"/></g></g></g><g mask="url(#__lottie_element_57)" style="display: block;" fill="currentColor"><g transform="matrix(1,0,0,1,226.89500427246094,36.91299819946289)" opacity="1" fill="currentColor"><g opacity="1" transform="matrix(1,0,0,1,0,0)" fill="currentColor"><path fill="currentColor" fill-opacity="1" d=" M79.65599822998047,36.891998291015625 C75.44599914550781,-8.531000137329102 39.55099868774414,-36.891998291015625 0.3319999873638153,-36.891998291015625 C-38.887001037597656,-36.891998291015625 -75.44599914550781,-8.531000137329102 -79.65599822998047,36.891998291015625 C-79.65599822998047,36.891998291015625 -62.816001892089844,36.891998291015625 -62.816001892089844,36.891998291015625 C-58.827999114990234,0.7749999761581421 -30.909000396728516,-22.047000885009766 0.11100000143051147,-22.047000885009766 C30.90999984741211,-22.047000885009766 59.04999923706055,0.7749999761581421 63.03799819946289,36.891998291015625 C63.03799819946289,36.891998291015625 79.65599822998047,36.891998291015625 79.65599822998047,36.891998291015625z"/></g></g></g><g mask="url(#__lottie_element_51)" style="display: block;" fill="currentColor"><g transform="matrix(1,0,0,1,377.7869873046875,84.77300262451172)" opacity="1" fill="currentColor"><g opacity="1" transform="matrix(1,0,0,1,0,0)" fill="currentColor"><path fill="currentColor" fill-opacity="1" d=" M26.256999969482422,65.25399780273438 C5.872000217437744,61.26599884033203 -9.416999816894531,43.981998443603516 -9.416999816894531,22.26799964904785 C-9.416999816894531,22.26799964904785 -9.416999816894531,-80.32099914550781 -9.416999816894531,-80.32099914550781 C-9.416999816894531,-80.32099914550781 -26.256999969482422,-80.32099914550781 -26.256999969482422,-80.32099914550781 C-26.256999969482422,-80.32099914550781 -26.256999969482422,22.26799964904785 -26.256999969482422,22.26799964904785 C-26.256999969482422,51.95899963378906 -3.6559998989105225,76.11100006103516 26.03499984741211,80.32099914550781 C26.03499984741211,80.32099914550781 26.03499984741211,65.25399780273438 26.03499984741211,65.25399780273438 C26.03499984741211,65.25399780273438 26.256999969482422,65.25399780273438 26.256999969482422,65.25399780273438z"/></g></g></g><g mask="url(#__lottie_element_45)" style="display: block;" fill="currentColor"><g transform="matrix(1,0,0,1,448.5799865722656,84.77300262451172)" opacity="1" fill="currentColor"><g opacity="1" transform="matrix(1,0,0,1,0,0)" fill="currentColor"><path fill="currentColor" fill-opacity="1" d=" M26.367000579833984,-80.32099914550781 C26.367000579833984,-80.32099914550781 9.527999877929688,-80.32099914550781 9.527999877929688,-80.32099914550781 C9.527999877929688,-80.32099914550781 9.527999877929688,22.26799964904785 9.527999877929688,22.26799964904785 C9.527999877929688,44.20399856567383 -5.98199987411499,61.26599884033203 -26.367000579833984,65.25399780273438 C-26.367000579833984,65.25399780273438 -26.367000579833984,80.32099914550781 -26.367000579833984,80.32099914550781 C3.3239998817443848,76.33300018310547 26.145999908447266,52.180999755859375 26.145999908447266,22.26799964904785 C26.145999908447266,22.26799964904785 26.145999908447266,-80.32099914550781 26.145999908447266,-80.32099914550781 C26.145999908447266,-80.32099914550781 26.367000579833984,-80.32099914550781 26.367000579833984,-80.32099914550781z"/></g></g></g><g mask="url(#__lottie_element_39)" style="display: block;" fill="currentColor"><g transform="matrix(1,0,0,1,533.4429931640625,83)" opacity="1" fill="currentColor"><g opacity="1" transform="matrix(1,0,0,1,0,0)" fill="currentColor"><path fill="currentColor" fill-opacity="1" d=" M8.420000076293945,-78.5479965209961 C8.420000076293945,-78.5479965209961 -8.420000076293945,-78.5479965209961 -8.420000076293945,-78.5479965209961 C-8.420000076293945,-78.5479965209961 -8.420000076293945,78.5479965209961 -8.420000076293945,78.5479965209961 C-8.420000076293945,78.5479965209961 8.420000076293945,78.5479965209961 8.420000076293945,78.5479965209961 C8.420000076293945,78.5479965209961 8.420000076293945,-78.5479965209961 8.420000076293945,-78.5479965209961z"/></g></g></g><g mask="url(#__lottie_element_33)" style="display: block;" fill="currentColor"><g transform="matrix(1,0,0,1,591.8280029296875,45.88600158691406)" opacity="1" fill="currentColor"><g opacity="1" transform="matrix(1,0,0,1,0,0)" fill="currentColor"><path fill="currentColor" fill-opacity="1" d=" M31.79599952697754,2.437000036239624 C31.79599952697754,-20.827999114990234 14.069999694824219,-41.433998107910156 -12.519000053405762,-41.433998107910156 C-12.519000053405762,-41.433998107910156 -31.79599952697754,-41.433998107910156 -31.79599952697754,-41.433998107910156 C-31.79599952697754,-41.433998107910156 -31.79599952697754,-26.81100082397461 -31.79599952697754,-26.81100082397461 C-31.79599952697754,-26.81100082397461 -13.184000015258789,-26.81100082397461 -13.184000015258789,-26.81100082397461 C4.763999938964844,-26.81100082397461 14.956000328063965,-13.072999954223633 14.956000328063965,2.2160000801086426 C14.956000328063965,13.515999794006348 9.196000099182129,23.70800018310547 -1.440000057220459,27.917999267578125 C-1.440000057220459,27.917999267578125 6.0929999351501465,41.433998107910156 6.0929999351501465,41.433998107910156 C22.711000442504883,34.7869987487793 31.79599952697754,19.05500030517578 31.79599952697754,2.437000036239624z"/></g></g></g><g mask="url(#__lottie_element_27)" style="display: block;" fill="currentColor"><g transform="matrix(1,0,0,1,592.7139892578125,122.3290023803711)" opacity="1" fill="currentColor"><g opacity="1" transform="matrix(1,0,0,1,0,0)" fill="currentColor"><path fill="currentColor" fill-opacity="1" d=" M-21.381999969482422,-42.54199981689453 C-21.381999969482422,-42.54199981689453 -35.119998931884766,-32.792999267578125 -35.119998931884766,-32.792999267578125 C-35.119998931884766,-32.792999267578125 21.381999969482422,42.54199981689453 21.381999969482422,42.54199981689453 C21.381999969482422,42.54199981689453 35.119998931884766,32.792999267578125 35.119998931884766,32.792999267578125 C35.119998931884766,32.792999267578125 -21.381999969482422,-42.54199981689453 -21.381999969482422,-42.54199981689453z"/></g></g></g><g mask="url(#__lottie_element_21)" style="display: block;" fill="currentColor"><g transform="matrix(1,0,0,1,741.5009765625,128.86599731445312)" opacity="1" fill="currentColor"><g opacity="1" transform="matrix(1,0,0,1,0,0)" fill="currentColor"><path fill="currentColor" fill-opacity="1" d=" M59.82500076293945,-20.93899917602539 C50.07600021362305,7.866000175476074 26.589000701904297,22.26799964904785 2.6589999198913574,22.26799964904785 C-26.145999908447266,22.26799964904785 -54.507999420166016,1.218999981880188 -58.49599838256836,-36.891998291015625 C-58.49599838256836,-36.891998291015625 -75.33499908447266,-36.891998291015625 -75.33499908447266,-36.891998291015625 C-71.125,10.968000411987305 -34.78799819946289,36.891998291015625 2.437000036239624,36.891998291015625 C32.57099914550781,36.891998291015625 62.48400115966797,19.608999252319336 75.33499908447266,-14.512999534606934 C75.33499908447266,-14.512999534606934 59.82500076293945,-20.93899917602539 59.82500076293945,-20.93899917602539z"/></g></g></g><g mask="url(#__lottie_element_15)" style="display: block;" fill="currentColor"><g transform="matrix(1,0,0,1,741.5009765625,37.02299880981445)" opacity="1" fill="currentColor"><g opacity="1" transform="matrix(1,0,0,1,0,0)" fill="currentColor"><path fill="currentColor" fill-opacity="1" d=" M75.33499908447266,14.845000267028809 C62.926998138427734,-19.72100067138672 32.792999267578125,-36.78099822998047 2.437000036239624,-36.78099822998047 C-34.34400177001953,-36.78099822998047 -70.90399932861328,-10.857000350952148 -75.33499908447266,36.78099822998047 C-75.33499908447266,36.78099822998047 -58.49599838256836,36.78099822998047 -58.49599838256836,36.78099822998047 C-54.2859992980957,-1.1080000400543213 -25.923999786376953,-22.156999588012695 2.6589999198913574,-22.156999588012695 C26.81100082397461,-22.156999588012695 50.07600021362305,-7.755000114440918 60.047000885009766,21.270999908447266 C60.047000885009766,21.270999908447266 75.33499908447266,14.845000267028809 75.33499908447266,14.845000267028809z"/></g></g></g><g mask="url(#__lottie_element_9)" style="display: block;" fill="currentColor"><g transform="matrix(1,0,0,1,951.2219848632812,81.4489974975586)" opacity="1" fill="currentColor"><g opacity="1" transform="matrix(1,0,0,1,0,0)" fill="currentColor"><path fill="currentColor" fill-opacity="1" d=" M24.041000366210938,-80.0989990234375 C24.041000366210938,-80.0989990234375 -37.77799987792969,7.201000213623047 -37.77799987792969,7.201000213623047 C-37.77799987792969,7.201000213623047 -37.77799987792969,80.0989990234375 -37.77799987792969,80.0989990234375 C-37.77799987792969,80.0989990234375 -20.93899917602539,80.0989990234375 -20.93899917602539,80.0989990234375 C-20.93899917602539,80.0989990234375 -20.93899917602539,11.633000373840332 -20.93899917602539,11.633000373840332 C-20.93899917602539,11.633000373840332 37.77799987792969,-71.23600006103516 37.77799987792969,-71.23600006103516 C37.77799987792969,-71.23600006103516 24.041000366210938,-80.0989990234375 24.041000366210938,-80.0989990234375z"/></g></g></g><g mask="url(#__lottie_element_3)" style="display: block;" fill="currentColor"><g transform="matrix(1,0,0,1,883.3090209960938,36.91299819946289)" opacity="1" fill="currentColor"><g opacity="1" transform="matrix(1,0,0,1,0,0)" fill="currentColor"><path fill="currentColor" fill-opacity="1" d=" M-15.067000389099121,-35.5629997253418 C-15.067000389099121,-35.5629997253418 -28.80500030517578,-26.47800064086914 -28.80500030517578,-26.47800064086914 C-28.80500030517578,-26.47800064086914 15.288999557495117,35.5629997253418 15.288999557495117,35.5629997253418 C15.288999557495117,35.5629997253418 28.80500030517578,26.47800064086914 28.80500030517578,26.47800064086914 C28.80500030517578,26.47800064086914 -15.067000389099121,-35.5629997253418 -15.067000389099121,-35.5629997253418z"/></g></g></g></g></svg>